<?xml version="1.0" encoding="UTF-8" standalone="no"?>
<svg xmlns="http://www.w3.org/2000/svg" width="446" height="223">
  <path d="M240.25522 1.3801552c-1.4483.2864587-2.8966 5.4357256-5.78614 8.3003114-2.02762 2.0052094-4.63455 2.0052094-6.07579 4.2968784-.57932.859375-.28968 2.578127-.86898 4.010419-1.15864 3.151044-5.21388 3.437503-5.21388 6.58156 0 3.437503 3.47592 4.296878 6.36546 6.868019 2.31727 2.00521 2.60694 3.437502 5.21387 4.296878 2.31728.859376 5.78614-1.718751 8.9724-.859376 2.60694.859376 5.21387 1.432293 5.78613 4.01042.57225 2.578127 0 6.295101-3.18626 5.722183-1.15864 0-5.78613-1.71875-11.28967-1.145833-6.94478.859376-14.76559 2.864583-15.34491 10.591979-.28968 4.29688 4.92422 9.15969 9.84137 8.30031 3.47592-.572914 1.73796-4.869794 3.76558-6.868016 2.60694-2.578126 16.78614 8.873228 30.10343 8.873228 5.49648 0 9.84137-1.432294 13.89661-5.722185.28968-.286466.86898-1.145832 1.4483-1.145832s1.4483.572914 1.73796.859375c10.71035 8.586767 18.81376 25.480837 57.89666 25.767294 5.49647 0 11.86899 2.578129 17.0758 7.154477 4.63456 4.29688 7.23443 10.878435 9.84137 17.459995 4.05524 10.01907 11.00001 19.75167 21.71036 30.34365.57932.57292 9.26206 7.44093 10.13103 7.7274 0 0 .86898 1.71875.57932 2.57812-.28967 6.58156-1.15863 25.19438 13.02764 26.05376 3.47591.28646 2.60693-2.29167 2.60693-4.01042 0-3.15105-.57932-6.58156 1.15864-9.73261 2.31728-4.58334-4.92422-6.58156-4.92422-16.60062.28968-7.44093-6.07579-6.2951-9.26205-11.73781-1.73796-3.15105-3.47592-5.15626-3.47592-9.15969.57932-22.61625-4.92421-37.498123-7.52409-40.935628-2.02762-2.864586-4.05524-3.723961-2.02762-5.156255 11.86899-7.727391 14.47593-14.888853 14.47593-14.888853 6.36545-14.602402 11.86899-28.05198 19.68275-33.781151 1.44829-1.145834 5.49647-4.296878 8.10341-5.435726 7.23443-3.437502 11.00001-5.435725 13.02762-7.440935 3.18626-3.151045 6.0758-10.0190628 2.89661-14.0294826-4.05524-5.1562539-10.71036-1.1458342-13.89662.8593757-21.71036 12.8836479-24.89662 35.2134409-32.42071 48.0901039-6.07579 10.305521-15.63457 18.032913-24.3173 18.605831-6.65511.572918-13.60695-.859375-20.55172-4.010418-17.07581-7.440935-26.34492-16.887081-28.65513-18.605832-4.63456-3.437504-39.94481-38.0710421-68.89667-39.503335 0 0-3.47592-7.1544769-4.3449-7.1544769-2.02762-.28645857-4.3449 4.2968782-5.78613 4.8697955-1.73796.8593756-4.05524-4.583337-5.49647-4.2968784zM113.75862 207.49756c-2.68681-.0766-4.84672-2.21267-4.92421-4.86979v-89.03272H79.02063v98.1924c0 4.8698 4.055241 8.87324 8.682732 8.87324H139.2275c4.92422 0 8.68273-4.01043 8.68273-8.87324v-98.1924h-29.23446v89.03272c-.0775 2.65712-2.2374 4.79315-4.92421 4.86979zm99.0001-93.89552H167.8897c-5.21388 0-9.55171 4.29688-9.55171 9.44614v97.33303h29.52411V131.3485c0-2.86459 2.31728-4.8698 4.92422-4.8698 2.8966 0 4.92422 2.00521 4.92422 4.8698v89.31917h29.52411v-89.60563c0-2.57813 2.31728-4.8698 4.92422-4.8698 2.60694 0 4.92422 2.29167 4.92422 4.8698v89.31917h29.52411v-97.33303c0-5.43572-4.3449-9.44614-9.55171-9.44614h-44.2897zM59.337887 193.46808H29.524114v26.90614H0V113.59505h59.627546c5.213879 0 9.551715 4.29688 9.551715 9.73261v60.68729c0 5.43573-4.344901 9.44614-9.841374 9.44614zM39.655145 131.3485c0-2.86459-2.317279-5.15626-4.924218-5.15626h-4.924218v54.10574h4.924218c2.606939 0 4.924218-2.00522 4.924218-5.15626v-43.80021zm274.295725 89.60563v-26.8069h-10.16908v26.8069h-29.635v-96.97402c0-5.41568 4.36121-9.4113 9.58759-9.4113h49.97315c5.23347 0 9.58759 4.28102 9.58759 9.4113v96.97402zm0-39.93539v-48.76893c0-2.56862-2.32598-4.85184-4.94271-4.85184s-4.94271 2.28322-4.94271 4.85184v49.05433l9.87833-.2854z"/>
  <circle fill="none" stroke="#000" stroke-width="2.23" cx="370.18" cy="205.16" r="13.38"/>
  <path d="m375.47853 211.85-2.83656-5.47688c1.23096-.446 2.3192-1.55208 2.3192-3.33608 0-2.12296-1.53424-3.88912-4.12104-3.88912h-4.97736V211.85h2.47976v-5.06656h1.784l2.47976 5.06656zm-2.99712-8.81296c0 .9812-.7136 1.67696-1.80184 1.67696h-2.33704v-3.35392h2.33704c1.08824 0 1.80184.69576 1.80184 1.67696z"/>
</svg>
